<?xml version="1.0" ?><!DOCTYPE svg  PUBLIC '-//W3C//DTD SVG 1.0//EN'  'http://www.w3.org/TR/2001/REC-SVG-20010904/DTD/svg10.dtd'><svg enable-background="new 0 0 100 100" height="100px" id="Layer_1" version="1.0" viewBox="0 0 100 100" width="100px" xml:space="preserve" xmlns="http://www.w3.org/2000/svg" xmlns:xlink="http://www.w3.org/1999/xlink"><path d="M87.786,51.314l0.4-0.573c3.174-4.531,2.073-10.766-2.454-13.929c-4.099-2.871-9.574-2.213-12.927,1.294  c-5.494-2.549-11.982-4.204-19.01-4.647c2.269-5.602,7.354-9.72,13.492-10.687c1.052,2.293,3.353,3.893,6.045,3.893  C77.018,26.666,80,23.681,80,20s-2.982-6.667-6.667-6.667c-2.874,0-5.303,1.828-6.236,4.376  c-8.813,1.143-16.045,7.383-18.601,15.674c-7.903,0.197-15.215,1.901-21.302,4.723c-3.353-3.507-8.828-4.165-12.93-1.294  C9.74,39.975,8.64,46.21,11.813,50.741l0.4,0.573C10.805,54.039,10,56.952,10,59.999c0,14.733,17.91,26.668,40,26.668  c22.093,0,40-11.935,40-26.668C90,56.952,89.195,54.039,87.786,51.314z M50,80c-18.066,0-33.333-9.161-33.333-20.001  c0-10.841,15.267-20,33.333-20c18.069,0,33.333,9.158,33.333,20C83.333,70.839,68.069,80,50,80z"/><path d="M63.132,62.896c-3.62,3.619-8.376,5.43-13.132,5.43s-9.512-1.811-13.131-5.43l-3.535,3.535  c9.198,9.199,24.124,9.205,33.333,0L63.132,62.896z"/><path d="M44.167,52.499c0,2.298-1.865,4.167-4.167,4.167c-2.301,0-4.166-1.869-4.166-4.167c0-2.305,1.865-4.167,4.166-4.167  C42.302,48.333,44.167,50.194,44.167,52.499z"/><path d="M64.167,52.499c0,2.298-1.865,4.167-4.167,4.167s-4.167-1.869-4.167-4.167c0-2.305,1.865-4.167,4.167-4.167  S64.167,50.194,64.167,52.499z"/></svg>