<?xml version="1.0" ?><!DOCTYPE svg  PUBLIC '-//W3C//DTD SVG 1.0//EN'  'http://www.w3.org/TR/2001/REC-SVG-20010904/DTD/svg10.dtd'><svg enable-background="new 0 0 100 100" height="100px" id="Layer_1" version="1.0" viewBox="0 0 100 100" width="100px" xml:space="preserve" xmlns="http://www.w3.org/2000/svg" xmlns:xlink="http://www.w3.org/1999/xlink"><path d="M50,10c-22.093,0-40,16.413-40,36.667c0,7.943,2.786,15.28,7.478,21.289l-7.224,17.436  c-0.703,1.699,0.104,3.646,1.804,4.355c0.853,0.352,1.764,0.325,2.552,0l21.27-8.809c4.395,1.523,9.141,2.396,14.121,2.396  c22.097,0,40-16.426,40-36.667C90,26.413,72.097,10,50,10z M50,76.666c-4.04,0-8.057-0.684-11.94-2.031l-2.393-0.826l-16.175,6.699  l5.632-13.594l-2.393-3.061c-3.969-5.084-6.064-11.028-6.064-17.188c0-16.542,14.951-30,33.333-30c18.379,0,33.333,13.457,33.333,30  C83.333,63.203,68.379,76.666,50,76.666z"/><polygon points="70.573,41.38 65.859,36.667 55.286,47.236 44.714,36.667 29.427,51.953 34.144,56.666 44.714,46.094 55.286,56.666   "/></svg>